<svg width="73" height="47" viewBox="0 0 73 47" fill="none" xmlns="http://www.w3.org/2000/svg">
<path fill-rule="evenodd" clip-rule="evenodd" d="M2.45548 44.4463C-0.818495 41.0413 -0.818494 35.5207 2.45548 32.1157L30.6927 2.74855C30.7422 2.69439 30.7925 2.64072 30.8436 2.58757C30.9626 2.46378 31.0843 2.3445 31.2085 2.22972C34.4999 -0.847584 39.5695 -0.739579 42.7361 2.55374C42.9533 2.77966 43.1561 3.01489 43.3445 3.25819L50.3259 10.519L38.4698 22.8495L36.7736 21.0854L14.3116 44.4463C11.0376 47.8512 5.72946 47.8513 2.45548 44.4463ZM35.9896 43.8046C32.7157 40.3996 32.7157 34.879 35.9896 31.474L58.3845 8.18298C61.6585 4.77798 66.9667 4.77797 70.2407 8.18297C73.5146 11.588 73.5146 17.1085 70.2407 20.5135L65.3988 25.5491L70.5445 30.9007C73.8185 34.3057 73.8185 39.8263 70.5445 43.2313C67.2705 46.6363 61.9623 46.6363 58.6884 43.2313L53.5427 37.8797L47.8458 43.8046C44.5718 47.2096 39.2636 47.2096 35.9896 43.8046Z" fill="url(#paint0_linear_106_3)"/>
<defs>
<linearGradient id="paint0_linear_106_3" x1="74.7738" y1="4.1387" x2="-4.318" y2="41.4055" gradientUnits="userSpaceOnUse">
<stop stop-color="#00FFB3"/>
<stop offset="1" stop-color="#00B3FF"/>
</linearGradient>
</defs>
</svg>
